<?xml version="1.0" encoding="utf-8" standalone="no"?>
<!DOCTYPE svg PUBLIC "-//W3C//DTD SVG 1.1//EN"
  "http://www.w3.org/Graphics/SVG/1.1/DTD/svg11.dtd">
<svg xmlns:xlink="http://www.w3.org/1999/xlink" width="424.8pt" height="460.8pt" viewBox="0 0 424.8 460.8" xmlns="http://www.w3.org/2000/svg" version="1.1">
 <metadata>
  <rdf:RDF xmlns:dc="http://purl.org/dc/elements/1.1/" xmlns:cc="http://creativecommons.org/ns#" xmlns:rdf="http://www.w3.org/1999/02/22-rdf-syntax-ns#">
   <cc:Work>
    <dc:type rdf:resource="http://purl.org/dc/dcmitype/StillImage"/>
    <dc:date>2026-07-03T10:16:41.618781</dc:date>
    <dc:format>image/svg+xml</dc:format>
    <dc:creator>
     <cc:Agent>
      <dc:title>Matplotlib v3.10.8, https://matplotlib.org/</dc:title>
     </cc:Agent>
    </dc:creator>
   </cc:Work>
  </rdf:RDF>
 </metadata>
 <defs>
  <style type="text/css">*{stroke-linejoin: round; stroke-linecap: butt}</style>
 </defs>
 <g id="figure_1">
  <g id="patch_1">
   <path d="M 0 460.8 
L 424.8 460.8 
L 424.8 0 
L 0 0 
z
" style="fill: #ffffff"/>
  </g>
  <g id="axes_1">
   <g id="patch_2">
    <path d="M 97.704 68.6592 
L 327.096 68.6592 
Q 328.7952 68.6592 328.7952 66.816 
L 328.7952 29.0304 
Q 328.7952 27.1872 327.096 27.1872 
L 97.704 27.1872 
Q 96.0048 27.1872 96.0048 29.0304 
L 96.0048 66.816 
Q 96.0048 68.6592 97.704 68.6592 
z
" style="fill: #f7f6f9; stroke: #9c9aa8; stroke-width: 0.7; stroke-linejoin: miter"/>
   </g>
   <g id="patch_3">
    <path d="M 97.704 123.9552 
L 327.096 123.9552 
Q 328.7952 123.9552 328.7952 122.112 
L 328.7952 84.3264 
Q 328.7952 82.4832 327.096 82.4832 
L 97.704 82.4832 
Q 96.0048 82.4832 96.0048 84.3264 
L 96.0048 122.112 
Q 96.0048 123.9552 97.704 123.9552 
z
" style="fill: #f7f6f9; stroke: #9c9aa8; stroke-width: 0.7; stroke-linejoin: miter"/>
   </g>
   <g id="patch_4">
    <path d="M 97.704 179.2512 
L 327.096 179.2512 
Q 328.7952 179.2512 328.7952 177.408 
L 328.7952 139.6224 
Q 328.7952 137.7792 327.096 137.7792 
L 97.704 137.7792 
Q 96.0048 137.7792 96.0048 139.6224 
L 96.0048 177.408 
Q 96.0048 179.2512 97.704 179.2512 
z
" style="fill: #f5f6fa; stroke: #8a92a3; stroke-width: 0.7; stroke-linejoin: miter"/>
   </g>
   <g id="patch_5">
    <path d="M 29.736 252.9792 
L 186.912 252.9792 
Q 188.6112 252.9792 188.6112 251.136 
L 188.6112 211.5072 
Q 188.6112 209.664 186.912 209.664 
L 29.736 209.664 
Q 28.0368 209.664 28.0368 211.5072 
L 28.0368 251.136 
Q 28.0368 252.9792 29.736 252.9792 
z
" style="fill: #f7f6f9; stroke: #9c9aa8; stroke-width: 0.7; stroke-linejoin: miter"/>
   </g>
   <g id="patch_6">
    <path d="M 237.888 252.9792 
L 395.064 252.9792 
Q 396.7632 252.9792 396.7632 251.136 
L 396.7632 211.5072 
Q 396.7632 209.664 395.064 209.664 
L 237.888 209.664 
Q 236.1888 209.664 236.1888 211.5072 
L 236.1888 251.136 
Q 236.1888 252.9792 237.888 252.9792 
z
" style="fill: #f7f6f9; stroke: #9c9aa8; stroke-width: 0.7; stroke-linejoin: miter"/>
   </g>
   <g id="patch_7">
    <path d="M 97.704 319.7952 
L 327.096 319.7952 
Q 328.7952 319.7952 328.7952 317.952 
L 328.7952 280.1664 
Q 328.7952 278.3232 327.096 278.3232 
L 97.704 278.3232 
Q 96.0048 278.3232 96.0048 280.1664 
L 96.0048 317.952 
Q 96.0048 319.7952 97.704 319.7952 
z
" style="fill: #f2f7f6; stroke: #7d9a96; stroke-width: 0.76; stroke-linejoin: miter"/>
   </g>
   <g id="patch_8">
    <path d="M 97.704 377.3952 
L 327.096 377.3952 
Q 328.7952 377.3952 328.7952 375.552 
L 328.7952 337.7664 
Q 328.7952 335.9232 327.096 335.9232 
L 97.704 335.9232 
Q 96.0048 335.9232 96.0048 337.7664 
L 96.0048 375.552 
Q 96.0048 377.3952 97.704 377.3952 
z
" style="fill: #f1f5f7; stroke: #6f8796; stroke-width: 0.76; stroke-linejoin: miter"/>
   </g>
   <g id="patch_9">
    <path d="M 97.704 434.9952 
L 327.096 434.9952 
Q 328.7952 434.9952 328.7952 433.152 
L 328.7952 395.3664 
Q 328.7952 393.5232 327.096 393.5232 
L 97.704 393.5232 
Q 96.0048 393.5232 96.0048 395.3664 
L 96.0048 433.152 
Q 96.0048 434.9952 97.704 434.9952 
z
" style="fill: #f1f5f7; stroke: #6f8796; stroke-width: 0.76; stroke-linejoin: miter"/>
   </g>
   <g id="patch_10">
    <path d="M 212.4 67.812075 
Q 212.4 75.567276 212.4 82.517493 
" style="fill: none; stroke: #6d777e; stroke-width: 0.72; stroke-linecap: round"/>
    <path d="M 213.9 79.517493 
L 212.4 82.517493 
L 210.9 79.517493 
z
" style="fill: #6d777e; stroke: #6d777e; stroke-width: 0.72; stroke-linecap: round"/>
   </g>
   <g id="patch_11">
    <path d="M 212.4 123.108075 
Q 212.4 130.863276 212.4 137.813493 
" style="fill: none; stroke: #6d777e; stroke-width: 0.72; stroke-linecap: round"/>
    <path d="M 213.9 134.813493 
L 212.4 137.813493 
L 210.9 134.813493 
z
" style="fill: #6d777e; stroke: #6d777e; stroke-width: 0.72; stroke-linecap: round"/>
   </g>
   <g id="patch_12">
    <path d="M 173.189987 177.59603 
Q 136.264015 184.831556 109.628402 210.257105 
" style="fill: none; stroke: #6d777e; stroke-width: 0.72; stroke-linecap: round"/>
    <path d="M 112.83417 209.27067 
L 109.628402 210.257105 
L 110.762715 207.10063 
z
" style="fill: #6d777e; stroke: #6d777e; stroke-width: 0.72; stroke-linecap: round"/>
   </g>
   <g id="patch_13">
    <path d="M 251.610013 177.59603 
Q 288.535985 184.831556 315.171598 210.257105 
" style="fill: none; stroke: #6d777e; stroke-width: 0.72; stroke-linecap: round"/>
    <path d="M 314.037285 207.10063 
L 315.171598 210.257105 
L 311.96583 209.27067 
z
" style="fill: #6d777e; stroke: #6d777e; stroke-width: 0.72; stroke-linecap: round"/>
   </g>
   <g id="patch_14">
    <path d="M 109.311316 251.280902 
Q 145.200763 256.675834 172.766192 279.025329 
" style="fill: none; stroke: #6d777e; stroke-width: 0.72; stroke-linecap: round"/>
    <path d="M 171.380571 275.970816 
L 172.766192 279.025329 
L 169.491209 278.301118 
z
" style="fill: #6d777e; stroke: #6d777e; stroke-width: 0.72; stroke-linecap: round"/>
   </g>
   <g id="patch_15">
    <path d="M 315.488684 251.280902 
Q 279.599237 256.675834 252.033808 279.025329 
" style="fill: none; stroke: #6d777e; stroke-width: 0.72; stroke-linecap: round"/>
    <path d="M 255.308791 278.301118 
L 252.033808 279.025329 
L 253.419429 275.970816 
z
" style="fill: #6d777e; stroke: #6d777e; stroke-width: 0.72; stroke-linecap: round"/>
   </g>
   <g id="patch_16">
    <path d="M 212.4 318.953363 
Q 212.4 327.861538 212.4 335.964729 
" style="fill: none; stroke: #6d777e; stroke-width: 0.72; stroke-linecap: round"/>
    <path d="M 213.9 332.964729 
L 212.4 335.964729 
L 210.9 332.964729 
z
" style="fill: #6d777e; stroke: #6d777e; stroke-width: 0.72; stroke-linecap: round"/>
   </g>
   <g id="patch_17">
    <path d="M 212.4 376.553362 
Q 212.4 385.461538 212.4 393.564729 
" style="fill: none; stroke: #6d777e; stroke-width: 0.72; stroke-linecap: round"/>
    <path d="M 213.9 390.564729 
L 212.4 393.564729 
L 210.9 390.564729 
z
" style="fill: #6d777e; stroke: #6d777e; stroke-width: 0.72; stroke-linecap: round"/>
   </g>
   <g id="text_1">
    <text style="font-weight: 600; font-size: 8.35px; font-family: 'Microsoft YaHei', 'Arial', 'SimHei', 'DejaVu Sans', sans-serif; text-anchor: middle; fill: #263238" x="212.4" y="45.310584" transform="rotate(-0 212.4 45.310584)">材料与波长输入</text>
   </g>
   <g id="text_2">
    <text style="font-size: 7.05px; font-family: 'Microsoft YaHei', 'Arial', 'SimHei', 'DejaVu Sans', sans-serif; text-anchor: middle; fill: #65727a" x="212.4" y="56.288256" transform="rotate(-0 212.4 56.288256)">材料名称 / 数据源筛选，仿真波长网格</text>
   </g>
   <g id="text_3">
    <text style="font-weight: 600; font-size: 8.35px; font-family: 'Microsoft YaHei', 'Arial', 'SimHei', 'DejaVu Sans', sans-serif; text-anchor: middle; fill: #263238" x="212.4" y="100.606584" transform="rotate(-0 212.4 100.606584)">材料名称规范化与检索</text>
   </g>
   <g id="text_4">
    <text style="font-size: 7.05px; font-family: 'Microsoft YaHei', 'Arial', 'SimHei', 'DejaVu Sans', sans-serif; text-anchor: middle; fill: #65727a" x="212.4" y="111.698268" transform="rotate(-0 212.4 111.698268)">别名映射，查询 data/real_nk/manifest.json</text>
   </g>
   <g id="text_5">
    <text style="font-weight: 600; font-size: 8.35px; font-family: 'Microsoft YaHei', 'Arial', 'SimHei', 'DejaVu Sans', sans-serif; text-anchor: middle; fill: #263238" x="212.4" y="155.902584" transform="rotate(-0 212.4 155.902584)">内存缓存查询</text>
   </g>
   <g id="text_6">
    <text style="font-size: 7.05px; font-family: 'Microsoft YaHei', 'Arial', 'SimHei', 'DejaVu Sans', sans-serif; text-anchor: middle; fill: #65727a" x="212.4" y="166.880256" transform="rotate(-0 212.4 166.880256)">相同材料与数据源是否已有 MaterialDataset？</text>
   </g>
   <g id="text_7">
    <text style="font-weight: 600; font-size: 8.35px; font-family: 'Microsoft YaHei', 'Arial', 'SimHei', 'DejaVu Sans', sans-serif; text-anchor: middle; fill: #263238" x="108.324" y="228.469368" transform="rotate(-0 108.324 228.469368)">缓存命中</text>
   </g>
   <g id="text_8">
    <text style="font-size: 7.05px; font-family: 'Microsoft YaHei', 'Arial', 'SimHei', 'DejaVu Sans', sans-serif; text-anchor: middle; fill: #65727a" x="108.324" y="240" transform="rotate(-0 108.324 240)">直接复用只读 MaterialDataset</text>
   </g>
   <g id="text_9">
    <text style="font-weight: 600; font-size: 8.35px; font-family: 'Microsoft YaHei', 'Arial', 'SimHei', 'DejaVu Sans', sans-serif; text-anchor: middle; fill: #263238" x="316.476" y="228.469368" transform="rotate(-0 316.476 228.469368)">CSV 读取与数据集构建</text>
   </g>
   <g id="text_10">
    <text style="font-size: 7.05px; font-family: 'Microsoft YaHei', 'Arial', 'SimHei', 'DejaVu Sans', sans-serif; text-anchor: middle; fill: #65727a" x="316.476" y="240" transform="rotate(-0 316.476 240)">按波长排序 / 只读数组 / 写入缓存</text>
   </g>
   <g id="text_11">
    <text style="font-weight: 600; font-size: 8.35px; font-family: 'Microsoft YaHei', 'Arial', 'SimHei', 'DejaVu Sans', sans-serif; text-anchor: middle; fill: #263238" x="212.4" y="296.446584" transform="rotate(-0 212.4 296.446584)">有效波长范围检查</text>
   </g>
   <g id="text_12">
    <text style="font-size: 7.05px; font-family: 'Microsoft YaHei', 'Arial', 'SimHei', 'DejaVu Sans', sans-serif; text-anchor: middle; fill: #65727a" x="212.4" y="307.424256" transform="rotate(-0 212.4 307.424256)">默认禁止超出源数据范围外推</text>
   </g>
   <g id="text_13">
    <text style="font-weight: 600; font-size: 8.35px; font-family: 'Microsoft YaHei', 'Arial', 'SimHei', 'DejaVu Sans', sans-serif; text-anchor: middle; fill: #263238" x="212.4" y="354.046584" transform="rotate(-0 212.4 354.046584)">n / k 线性插值</text>
   </g>
   <g id="text_14">
    <!-- numpy.interp 映射到目标波长 $\lambda$ -->
    <g style="fill: #65727a" transform="translate(160.89975 365.127252)">
     <text>
      <tspan x="0" y="-0.140625" style="font-size: 7.05px; font-family: 'Microsoft YaHei'; fill: #65727a">n</tspan>
      <tspan x="4.313477" y="-0.140625" style="font-size: 7.05px; font-family: 'Microsoft YaHei'; fill: #65727a">u</tspan>
      <tspan x="8.626953" y="-0.140625" style="font-size: 7.05px; font-family: 'Microsoft YaHei'; fill: #65727a">m</tspan>
      <tspan x="15.186035" y="-0.140625" style="font-size: 7.05px; font-family: 'Microsoft YaHei'; fill: #65727a">p</tspan>
      <tspan x="19.656738" y="-0.140625" style="font-size: 7.05px; font-family: 'Microsoft YaHei'; fill: #65727a">y</tspan>
      <tspan x="23.361816" y="-0.140625" style="font-size: 7.05px; font-family: 'Microsoft YaHei'; fill: #65727a">.</tspan>
      <tspan x="25.046875" y="-0.140625" style="font-size: 7.05px; font-family: 'Microsoft YaHei'; fill: #65727a">i</tspan>
      <tspan x="26.909668" y="-0.140625" style="font-size: 7.05px; font-family: 'Microsoft YaHei'; fill: #65727a">n</tspan>
      <tspan x="31.223145" y="-0.140625" style="font-size: 7.05px; font-family: 'Microsoft YaHei'; fill: #65727a">t</tspan>
      <tspan x="33.831055" y="-0.140625" style="font-size: 7.05px; font-family: 'Microsoft YaHei'; fill: #65727a">e</tspan>
      <tspan x="37.802734" y="-0.140625" style="font-size: 7.05px; font-family: 'Microsoft YaHei'; fill: #65727a">r</tspan>
      <tspan x="40.475586" y="-0.140625" style="font-size: 7.05px; font-family: 'Microsoft YaHei'; fill: #65727a">p</tspan>
      <tspan x="44.946289" y="-0.140625" style="font-size: 7.05px; font-family: 'Microsoft YaHei'; fill: #65727a"> </tspan>
      <tspan x="47.017578" y="-0.140625" style="font-size: 7.05px; font-family: 'Microsoft YaHei'; fill: #65727a">映</tspan>
      <tspan x="54.017578" y="-0.140625" style="font-size: 7.05px; font-family: 'Microsoft YaHei'; fill: #65727a">射</tspan>
      <tspan x="61.017578" y="-0.140625" style="font-size: 7.05px; font-family: 'Microsoft YaHei'; fill: #65727a">到</tspan>
      <tspan x="68.017578" y="-0.140625" style="font-size: 7.05px; font-family: 'Microsoft YaHei'; fill: #65727a">目</tspan>
      <tspan x="75.017578" y="-0.140625" style="font-size: 7.05px; font-family: 'Microsoft YaHei'; fill: #65727a">标</tspan>
      <tspan x="82.017578" y="-0.140625" style="font-size: 7.05px; font-family: 'Microsoft YaHei'; fill: #65727a">波</tspan>
      <tspan x="89.017578" y="-0.140625" style="font-size: 7.05px; font-family: 'Microsoft YaHei'; fill: #65727a">长</tspan>
      <tspan x="96.017578" y="-0.140625" style="font-size: 7.05px; font-family: 'Microsoft YaHei'; fill: #65727a"> </tspan>
      <tspan x="98.088867" y="-0.140625" style="font-style: oblique; font-size: 7.05px; font-family: 'DejaVu Sans'; fill: #65727a">λ</tspan>
     </text>
    </g>
   </g>
   <g id="text_15">
    <text style="font-weight: 600; font-size: 8.35px; font-family: 'Microsoft YaHei', 'Arial', 'SimHei', 'DejaVu Sans', sans-serif; text-anchor: middle; fill: #263238" x="212.4" y="411.646584" transform="rotate(-0 212.4 411.646584)">复折射率输出至 TMM</text>
   </g>
   <g id="text_16">
    <!-- $\tilde{n}(\lambda)=n(\lambda)+i\,k(\lambda)$ -->
    <g style="fill: #65727a" transform="translate(181.1685 422.624256)">
     <text>
      <tspan x="4.436523" y="-0.228125" style="font-size: 7.05px; font-family: 'DejaVu Sans'; fill: #65727a">(</tspan>
      <tspan x="4.984131" y="-0.5625" style="font-size: 7.05px; font-family: 'DejaVu Sans'; fill: #65727a">̃</tspan>
      <tspan x="11.310059" y="-0.228125" style="font-size: 7.05px; font-family: 'DejaVu Sans'; fill: #65727a">)</tspan>
      <tspan x="15.404785" y="-0.228125" style="font-size: 7.05px; font-family: 'DejaVu Sans'; fill: #65727a">=</tspan>
      <tspan x="27.070312" y="-0.228125" style="font-size: 7.05px; font-family: 'DejaVu Sans'; fill: #65727a">(</tspan>
      <tspan x="33.943848" y="-0.228125" style="font-size: 7.05px; font-family: 'DejaVu Sans'; fill: #65727a">)</tspan>
      <tspan x="38.038574" y="-0.228125" style="font-size: 7.05px; font-family: 'DejaVu Sans'; fill: #65727a">+</tspan>
      <tspan x="52.402611" y="-0.228125" style="font-size: 7.05px; font-family: 'DejaVu Sans'; fill: #65727a">(</tspan>
      <tspan x="59.276146" y="-0.228125" style="font-size: 7.05px; font-family: 'DejaVu Sans'; fill: #65727a">)</tspan>
      <tspan x="0" y="-0.228125" style="font-style: oblique; font-size: 7.05px; font-family: 'DejaVu Sans'; fill: #65727a">n</tspan>
      <tspan x="7.16748" y="-0.228125" style="font-style: oblique; font-size: 7.05px; font-family: 'DejaVu Sans'; fill: #65727a">λ</tspan>
      <tspan x="22.633789" y="-0.228125" style="font-style: oblique; font-size: 7.05px; font-family: 'DejaVu Sans'; fill: #65727a">n</tspan>
      <tspan x="29.80127" y="-0.228125" style="font-style: oblique; font-size: 7.05px; font-family: 'DejaVu Sans'; fill: #65727a">λ</tspan>
      <tspan x="45.267578" y="-0.228125" style="font-style: oblique; font-size: 7.05px; font-family: 'DejaVu Sans'; fill: #65727a">i</tspan>
      <tspan x="48.3489" y="-0.228125" style="font-style: oblique; font-size: 7.05px; font-family: 'DejaVu Sans'; fill: #65727a">k</tspan>
      <tspan x="55.133568" y="-0.228125" style="font-style: oblique; font-size: 7.05px; font-family: 'DejaVu Sans'; fill: #65727a">λ</tspan>
     </text>
    </g>
   </g>
   <g id="text_17">
    <text style="font-size: 6.8px; font-family: 'Microsoft YaHei', 'Arial', 'SimHei', 'DejaVu Sans', sans-serif; text-anchor: middle; fill: #65727a" x="150.804" y="199.9872" transform="rotate(-0 150.804 199.9872)">是</text>
   </g>
   <g id="text_18">
    <text style="font-size: 6.8px; font-family: 'Microsoft YaHei', 'Arial', 'SimHei', 'DejaVu Sans', sans-serif; text-anchor: middle; fill: #65727a" x="273.996" y="199.9872" transform="rotate(-0 273.996 199.9872)">否</text>
   </g>
   <g id="text_19">
    <text style="font-weight: 600; font-size: 9.2px; font-family: 'Microsoft YaHei', 'Arial', 'SimHei', 'DejaVu Sans', sans-serif; text-anchor: middle; fill: #263238" x="212.4" y="452.983338" transform="rotate(-0 212.4 452.983338)">图 2-2  真实材料 nk 数据读取与插值流程图</text>
   </g>
  </g>
 </g>
</svg>
