<?xml version="1.0" encoding="utf-8" standalone="no"?>
<!DOCTYPE svg PUBLIC "-//W3C//DTD SVG 1.1//EN"
  "http://www.w3.org/Graphics/SVG/1.1/DTD/svg11.dtd">
<svg xmlns:xlink="http://www.w3.org/1999/xlink" width="424.8pt" height="460.8pt" viewBox="0 0 424.8 460.8" xmlns="http://www.w3.org/2000/svg" version="1.1">
 <metadata>
  <rdf:RDF xmlns:dc="http://purl.org/dc/elements/1.1/" xmlns:cc="http://creativecommons.org/ns#" xmlns:rdf="http://www.w3.org/1999/02/22-rdf-syntax-ns#">
   <cc:Work>
    <dc:type rdf:resource="http://purl.org/dc/dcmitype/StillImage"/>
    <dc:date>2026-07-03T10:23:51.931318</dc:date>
    <dc:format>image/svg+xml</dc:format>
    <dc:creator>
     <cc:Agent>
      <dc:title>Matplotlib v3.10.8, https://matplotlib.org/</dc:title>
     </cc:Agent>
    </dc:creator>
   </cc:Work>
  </rdf:RDF>
 </metadata>
 <defs>
  <style type="text/css">*{stroke-linejoin: round; stroke-linecap: butt}</style>
 </defs>
 <g id="figure_1">
  <g id="patch_1">
   <path d="M 0 460.8 
L 424.8 460.8 
L 424.8 0 
L 0 0 
z
" style="fill: #ffffff"/>
  </g>
  <g id="axes_1">
   <g id="patch_2">
    <path d="M 97.704 68.6592 
L 327.096 68.6592 
Q 328.7952 68.6592 328.7952 66.816 
L 328.7952 29.0304 
Q 328.7952 27.1872 327.096 27.1872 
L 97.704 27.1872 
Q 96.0048 27.1872 96.0048 29.0304 
L 96.0048 66.816 
Q 96.0048 68.6592 97.704 68.6592 
z
" style="fill: #f7f6f9; stroke: #9c9aa8; stroke-width: 0.7; stroke-linejoin: miter"/>
   </g>
   <g id="patch_3">
    <path d="M 27.612 151.6032 
L 186.912 151.6032 
Q 188.6112 151.6032 188.6112 149.76 
L 188.6112 107.3664 
Q 188.6112 105.5232 186.912 105.5232 
L 27.612 105.5232 
Q 25.9128 105.5232 25.9128 107.3664 
L 25.9128 149.76 
Q 25.9128 151.6032 27.612 151.6032 
z
" style="fill: #f1f5f7; stroke: #6f8796; stroke-width: 0.76; stroke-linejoin: miter"/>
   </g>
   <g id="patch_4">
    <path d="M 237.888 151.6032 
L 397.188 151.6032 
Q 398.8872 151.6032 398.8872 149.76 
L 398.8872 107.3664 
Q 398.8872 105.5232 397.188 105.5232 
L 237.888 105.5232 
Q 236.1888 105.5232 236.1888 107.3664 
L 236.1888 149.76 
Q 236.1888 151.6032 237.888 151.6032 
z
" style="fill: #f1f5f7; stroke: #6f8796; stroke-width: 0.76; stroke-linejoin: miter"/>
   </g>
   <g id="patch_5">
    <path d="M 27.612 229.9392 
L 186.912 229.9392 
Q 188.6112 229.9392 188.6112 228.096 
L 188.6112 185.7024 
Q 188.6112 183.8592 186.912 183.8592 
L 27.612 183.8592 
Q 25.9128 183.8592 25.9128 185.7024 
L 25.9128 228.096 
Q 25.9128 229.9392 27.612 229.9392 
z
" style="fill: #f7f6f9; stroke: #9c9aa8; stroke-width: 0.7; stroke-linejoin: miter"/>
   </g>
   <g id="patch_6">
    <path d="M 237.888 229.9392 
L 397.188 229.9392 
Q 398.8872 229.9392 398.8872 228.096 
L 398.8872 185.7024 
Q 398.8872 183.8592 397.188 183.8592 
L 237.888 183.8592 
Q 236.1888 183.8592 236.1888 185.7024 
L 236.1888 228.096 
Q 236.1888 229.9392 237.888 229.9392 
z
" style="fill: #f7f6f9; stroke: #9c9aa8; stroke-width: 0.7; stroke-linejoin: miter"/>
   </g>
   <g id="patch_7">
    <path d="M 97.704 305.9712 
L 327.096 305.9712 
Q 328.7952 305.9712 328.7952 304.128 
L 328.7952 266.3424 
Q 328.7952 264.4992 327.096 264.4992 
L 97.704 264.4992 
Q 96.0048 264.4992 96.0048 266.3424 
L 96.0048 304.128 
Q 96.0048 305.9712 97.704 305.9712 
z
" style="fill: #f2f7f6; stroke: #7d9a96; stroke-width: 0.76; stroke-linejoin: miter"/>
   </g>
   <g id="patch_8">
    <path d="M 97.704 368.1792 
L 327.096 368.1792 
Q 328.7952 368.1792 328.7952 366.336 
L 328.7952 328.5504 
Q 328.7952 326.7072 327.096 326.7072 
L 97.704 326.7072 
Q 96.0048 326.7072 96.0048 328.5504 
L 96.0048 366.336 
Q 96.0048 368.1792 97.704 368.1792 
z
" style="fill: #f8f5ef; stroke: #a5957e; stroke-width: 0.76; stroke-linejoin: miter"/>
   </g>
   <g id="patch_9">
    <path d="M 97.704 428.0832 
L 327.096 428.0832 
Q 328.7952 428.0832 328.7952 426.24 
L 328.7952 388.4544 
Q 328.7952 386.6112 327.096 386.6112 
L 97.704 386.6112 
Q 96.0048 386.6112 96.0048 388.4544 
L 96.0048 426.24 
Q 96.0048 428.0832 97.704 428.0832 
z
" style="fill: #f5f6fa; stroke: #8a92a3; stroke-width: 0.7; stroke-linejoin: miter"/>
   </g>
   <g id="patch_10">
    <path d="M 175.31532 67.039426 
Q 135.441035 76.307043 108.47242 106.027316 
" style="fill: none; stroke: #6d777e; stroke-width: 0.72; stroke-linecap: round"/>
    <path d="M 111.599235 104.813633 
L 108.47242 106.027316 
L 109.377563 102.797654 
z
" style="fill: #6d777e; stroke: #6d777e; stroke-width: 0.72; stroke-linecap: round"/>
   </g>
   <g id="patch_11">
    <path d="M 249.48468 67.039426 
Q 289.358965 76.307043 316.32758 106.027316 
" style="fill: none; stroke: #6d777e; stroke-width: 0.72; stroke-linecap: round"/>
    <path d="M 315.422437 102.797654 
L 316.32758 106.027316 
L 313.200765 104.813633 
z
" style="fill: #6d777e; stroke: #6d777e; stroke-width: 0.72; stroke-linecap: round"/>
   </g>
   <g id="patch_12">
    <path d="M 107.262 150.755963 
Q 107.262 167.727935 107.262 183.894924 
" style="fill: none; stroke: #6d777e; stroke-width: 0.72; stroke-linecap: round"/>
    <path d="M 108.762 180.894924 
L 107.262 183.894924 
L 105.762 180.894924 
z
" style="fill: #6d777e; stroke: #6d777e; stroke-width: 0.72; stroke-linecap: round"/>
   </g>
   <g id="patch_13">
    <path d="M 317.538 150.755963 
Q 317.538 167.727935 317.538 183.894924 
" style="fill: none; stroke: #6d777e; stroke-width: 0.72; stroke-linecap: round"/>
    <path d="M 319.038 180.894924 
L 317.538 183.894924 
L 316.038 180.894924 
z
" style="fill: #6d777e; stroke: #6d777e; stroke-width: 0.72; stroke-linecap: round"/>
   </g>
   <g id="patch_14">
    <path d="M 108.238631 228.330996 
Q 147.002919 237.789503 175.000204 265.078812 
" style="fill: none; stroke: #6d777e; stroke-width: 0.72; stroke-linecap: round"/>
    <path d="M 173.898887 261.910674 
L 175.000204 265.078812 
L 171.804903 264.058982 
z
" style="fill: #6d777e; stroke: #6d777e; stroke-width: 0.72; stroke-linecap: round"/>
   </g>
   <g id="patch_15">
    <path d="M 316.561369 228.330996 
Q 277.797081 237.789503 249.799796 265.078812 
" style="fill: none; stroke: #6d777e; stroke-width: 0.72; stroke-linecap: round"/>
    <path d="M 252.995097 264.058982 
L 249.799796 265.078812 
L 250.901113 261.910674 
z
" style="fill: #6d777e; stroke: #6d777e; stroke-width: 0.72; stroke-linecap: round"/>
   </g>
   <g id="patch_16">
    <path d="M 212.4 305.126719 
Q 212.4 316.339605 212.4 326.747507 
" style="fill: none; stroke: #6d777e; stroke-width: 0.72; stroke-linecap: round"/>
    <path d="M 213.9 323.747507 
L 212.4 326.747507 
L 210.9 323.747507 
z
" style="fill: #6d777e; stroke: #6d777e; stroke-width: 0.72; stroke-linecap: round"/>
   </g>
   <g id="patch_17">
    <path d="M 212.4 367.3377 
Q 212.4 377.397261 212.4 386.651837 
" style="fill: none; stroke: #6d777e; stroke-width: 0.72; stroke-linecap: round"/>
    <path d="M 213.9 383.651837 
L 212.4 386.651837 
L 210.9 383.651837 
z
" style="fill: #6d777e; stroke: #6d777e; stroke-width: 0.72; stroke-linecap: round"/>
   </g>
   <g id="text_1">
    <text style="font-weight: 600; font-size: 8.25px; font-family: 'Microsoft YaHei', 'Arial', 'SimHei', 'DejaVu Sans', sans-serif; text-anchor: middle; fill: #263238" x="212.4" y="45.283045" transform="rotate(-0 212.4 45.283045)">触发本地验证</text>
   </g>
   <g id="text_2">
    <text style="font-size: 6.85px; font-family: 'Microsoft YaHei', 'Arial', 'SimHei', 'DejaVu Sans', sans-serif; text-anchor: middle; fill: #65727a" x="212.4" y="56.340209" transform="rotate(-0 212.4 56.340209)">运行 pytest 测试集与 smoke_test.py</text>
   </g>
   <g id="text_3">
    <text style="font-weight: 600; font-size: 8.25px; font-family: 'Microsoft YaHei', 'Arial', 'SimHei', 'DejaVu Sans', sans-serif; text-anchor: middle; fill: #263238" x="107.262" y="125.456778" transform="rotate(-0 107.262 125.456778)">pytest 单元与物理测试</text>
   </g>
   <g id="text_4">
    <text style="font-size: 6.85px; font-family: 'Microsoft YaHei', 'Arial', 'SimHei', 'DejaVu Sans', sans-serif; text-anchor: middle; fill: #65727a" x="107.262" y="137.656538" transform="rotate(-0 107.262 137.656538)">270 个用例：数值一致性 / 守恒 / 模块边界</text>
   </g>
   <g id="text_5">
    <text style="font-weight: 600; font-size: 8.25px; font-family: 'Microsoft YaHei', 'Arial', 'SimHei', 'DejaVu Sans', sans-serif; text-anchor: middle; fill: #263238" x="317.538" y="125.324005" transform="rotate(-0 317.538 125.324005)">功能管道冒烟自检</text>
   </g>
   <g id="text_6">
    <text style="font-size: 6.85px; font-family: 'Microsoft YaHei', 'Arial', 'SimHei', 'DejaVu Sans', sans-serif; text-anchor: middle; fill: #65727a" x="317.538" y="137.656538" transform="rotate(-0 317.538 137.656538)">导入检查 / 演示入口 / 输出链路</text>
   </g>
   <g id="text_7">
    <text style="font-weight: 600; font-size: 8.25px; font-family: 'Microsoft YaHei', 'Arial', 'SimHei', 'DejaVu Sans', sans-serif; text-anchor: middle; fill: #263238" x="107.262" y="203.792778" transform="rotate(-0 107.262 203.792778)">pytest 运行证据</text>
   </g>
   <g id="text_8">
    <text style="font-size: 6.85px; font-family: 'Microsoft YaHei', 'Arial', 'SimHei', 'DejaVu Sans', sans-serif; text-anchor: middle; fill: #65727a" x="107.262" y="216.103315" transform="rotate(-0 107.262 216.103315)">pytest_log.txt · 图 3-3 终端截图</text>
   </g>
   <g id="text_9">
    <text style="font-weight: 600; font-size: 8.25px; font-family: 'Microsoft YaHei', 'Arial', 'SimHei', 'DejaVu Sans', sans-serif; text-anchor: middle; fill: #263238" x="317.538" y="203.660005" transform="rotate(-0 317.538 203.660005)">smoke test 运行证据</text>
   </g>
   <g id="text_10">
    <text style="font-size: 6.85px; font-family: 'Microsoft YaHei', 'Arial', 'SimHei', 'DejaVu Sans', sans-serif; text-anchor: middle; fill: #65727a" x="317.538" y="216.103315" transform="rotate(-0 317.538 216.103315)">smoke_test_log.txt · 图 3-4 终端截图</text>
   </g>
   <g id="text_11">
    <text style="font-weight: 600; font-size: 8.25px; font-family: 'Microsoft YaHei', 'Arial', 'SimHei', 'DejaVu Sans', sans-serif; text-anchor: middle; fill: #263238" x="212.4" y="282.595045" transform="rotate(-0 212.4 282.595045)">证据文件集中归档</text>
   </g>
   <g id="text_12">
    <text style="font-size: 6.85px; font-family: 'Microsoft YaHei', 'Arial', 'SimHei', 'DejaVu Sans', sans-serif; text-anchor: middle; fill: #65727a" x="212.4" y="293.645787" transform="rotate(-0 212.4 293.645787)">docs/evidence/ 日志 · docs/figures/ 图示</text>
   </g>
   <g id="text_13">
    <text style="font-weight: 600; font-size: 8.25px; font-family: 'Microsoft YaHei', 'Arial', 'SimHei', 'DejaVu Sans', sans-serif; text-anchor: middle; fill: #263238" x="212.4" y="344.803045" transform="rotate(-0 212.4 344.803045)">证据清单映射</text>
   </g>
   <g id="text_14">
    <text style="font-size: 6.85px; font-family: 'Microsoft YaHei', 'Arial', 'SimHei', 'DejaVu Sans', sans-serif; text-anchor: middle; fill: #65727a" x="212.4" y="355.856998" transform="rotate(-0 212.4 355.856998)">evidence_list.md 记录图号、来源与插入位置</text>
   </g>
   <g id="text_15">
    <text style="font-weight: 600; font-size: 8.25px; font-family: 'Microsoft YaHei', 'Arial', 'SimHei', 'DejaVu Sans', sans-serif; text-anchor: middle; fill: #263238" x="212.4" y="404.707045" transform="rotate(-0 212.4 404.707045)">作品说明书排版</text>
   </g>
   <g id="text_16">
    <text style="font-size: 6.85px; font-family: 'Microsoft YaHei', 'Arial', 'SimHei', 'DejaVu Sans', sans-serif; text-anchor: middle; fill: #65727a" x="212.4" y="415.657178" transform="rotate(-0 212.4 415.657178)">引用现有日志、流程图与测试截图</text>
   </g>
   <g id="text_17">
    <text style="font-size: 6.7px; font-family: 'Microsoft YaHei', 'Arial', 'SimHei', 'DejaVu Sans', sans-serif; text-anchor: middle; fill: #65727a" x="212.4" y="446.517117" transform="rotate(-0 212.4 446.517117)">仅整理与引用既有证据，不修改真实仿真结果图或测试截图</text>
   </g>
   <g id="text_18">
    <text style="font-weight: 600; font-size: 9.2px; font-family: 'Microsoft YaHei', 'Arial', 'SimHei', 'DejaVu Sans', sans-serif; text-anchor: middle; fill: #263238" x="212.4" y="455.748137" transform="rotate(-0 212.4 455.748137)">图 3-5  测试与证据材料生成流程图</text>
   </g>
  </g>
 </g>
</svg>
